<svg width="18" height="29" viewBox="0 0 18 29" fill="none" xmlns="http://www.w3.org/2000/svg">
<path d="M2.336 28.0461C2.10133 27.8755 1.80267 27.1608 1.44 25.9021C1.09867 24.6435 0.832 23.4275 0.64 22.2541C0.554667 21.8061 0.384 21.1981 0.128 20.4301C0.0426667 20.0888 0 19.8541 0 19.7261C0 19.3421 0.16 19.0541 0.48 18.8621C0.565333 18.7981 0.682667 18.7555 0.832 18.7341C1.00267 18.6915 1.14133 18.6808 1.248 18.7021C1.71733 18.8728 2.144 20.1741 2.528 22.6061C2.592 23.2248 2.688 23.7795 2.816 24.2701C2.944 24.7608 3.01867 25.0488 3.04 25.1341C3.104 25.2621 3.17867 25.4008 3.264 25.5501C3.34933 25.6781 3.44533 25.7421 3.552 25.7421C3.616 25.7421 3.69067 25.6995 3.776 25.6141C4.18133 25.2088 4.61867 24.6968 5.088 24.0781C5.6 23.3741 5.952 22.9048 6.144 22.6701C6.37867 22.3075 6.688 21.8808 7.072 21.3901C7.136 21.3048 7.28533 21.1021 7.52 20.7821C7.75467 20.4621 7.97867 20.1955 8.192 19.9821C8.40533 19.7475 8.58667 19.6088 8.736 19.5661C8.8 19.5448 8.896 19.5341 9.024 19.5341C9.38667 19.5341 9.568 19.6835 9.568 19.9821C9.568 20.2595 9.376 20.6755 8.992 21.2301C8.864 21.4008 8.72533 21.6355 8.576 21.9341C8.448 22.2115 8.36267 22.3715 8.32 22.4141C8.08533 22.8835 7.648 23.5448 7.008 24.3981C6.38933 25.2515 5.97333 25.7848 5.76 25.9981C5.71733 26.0408 5.536 26.1901 5.216 26.4461C4.91733 26.7021 4.64 27.0115 4.384 27.3741C3.70133 28.0141 3.21067 28.3341 2.912 28.3341C2.72 28.3341 2.528 28.2381 2.336 28.0461Z" fill="black"/>
<path d="M3.39734 26.9074C3.03468 26.9288 2.75734 26.8221 2.56534 26.5874C2.37334 26.3528 2.27734 26.0221 2.27734 25.5954C2.27734 24.9341 2.50134 24.1234 2.94934 23.1634C3.01334 23.0354 3.12001 22.8434 3.26934 22.5874C3.41868 22.3101 3.51468 22.0861 3.55734 21.9154C3.72801 21.5314 4.68801 19.7501 6.43734 16.5714C8.18668 13.3928 9.12534 11.7181 9.25334 11.5474C9.33868 11.5688 9.42401 11.5154 9.50934 11.3874C9.59468 11.2594 9.65868 11.1101 9.70134 10.9394C9.74401 10.7474 9.81868 10.5661 9.92534 10.3954C10.0533 10.2034 10.16 10.0861 10.2453 10.0434C10.288 9.95811 10.3413 9.84077 10.4053 9.69144C10.4907 9.54211 10.544 9.43544 10.5653 9.37144C10.5653 9.32877 10.5973 9.25411 10.6613 9.14744C10.7467 9.04077 10.8 8.95544 10.8213 8.89144C11.2907 8.31544 12.176 7.00344 13.4773 4.95544C14.7787 2.88611 15.4613 1.72344 15.5253 1.46744C15.5893 1.14744 15.8027 1.01944 16.1653 1.08344C16.272 0.998108 16.4427 0.976775 16.6773 1.01944C16.6987 1.04077 16.7307 1.10477 16.7733 1.21144C16.8373 1.31811 16.9333 1.45677 17.0613 1.62744C17.1893 1.77677 17.2533 1.97944 17.2533 2.23544C17.2533 2.40611 17.2213 2.60877 17.1573 2.84344C17.0933 3.16344 16.9973 3.43011 16.8693 3.64344C16.7413 3.83544 16.432 4.25144 15.9413 4.89144L15.0773 6.04344L14.3733 7.00344C14.0747 7.36611 13.9253 7.57944 13.9253 7.64344C13.8827 7.72878 13.808 7.85678 13.7013 8.02744C13.5947 8.17677 13.4773 8.36877 13.3493 8.60344C13.1147 8.90211 12.72 9.43544 12.1653 10.2034C11.632 10.9714 11.3547 11.3981 11.3333 11.4834C11.312 11.5261 11.28 11.6008 11.2373 11.7074C11.216 11.7928 11.152 11.8674 11.0453 11.9314C10.9813 11.9101 10.928 11.9528 10.8853 12.0594C10.8427 12.1448 10.8213 12.2088 10.8213 12.2514C10.8213 12.4221 10.544 12.9448 9.98934 13.8194C9.02934 15.5688 7.81334 17.8514 6.34134 20.6674C4.86934 23.4834 4.08001 25.1368 3.97334 25.6274C3.86668 26.1394 3.78134 26.4701 3.71734 26.6194C3.65334 26.7688 3.54668 26.8648 3.39734 26.9074Z" fill="black"/>
</svg>
