<svg id="Layer_1" data-name="Layer 1" xmlns="http://www.w3.org/2000/svg" viewBox="0 0 399.92635 81.82538"><defs><style>.cls-1{fill:#010101;}</style></defs><path class="cls-1" d="M417.2729,386.21529c-5.094,0-9.274,1.765-12.245,5.136l.576-2.972a1.4092,1.4092,0,0,0-1.408-1.735,2.24425,2.24425,0,0,0-2.08,1.735l-8.8,45.456a1.40848,1.40848,0,0,0,1.407,1.736,2.24824,2.24824,0,0,0,2.082-1.736l3.267-16.883c1.203,2.159,3.994,5.118,10.26,5.118a17.40265,17.40265,0,0,0,12.222-4.458c3.311-3.053,5.57-7.596,6.715-13.507,1.144-5.907.64-10.44-1.494-13.472-2.062-2.93-5.598-4.418-10.502-4.418Zm-6.324,32.675c-7.454,0-10.404-5.112-8.531-14.78,1.89-9.762,6.608-14.71,14.025-14.71,8.104,0,11.11,4.81,9.194,14.71C423.68291,414.1933,419.01591,418.89029,410.9489,418.89029Zm82.266-16.702c-4.42-1.631-8.599-3.172-7.804-7.272.4-2.06,2.08-5.519,8.852-5.519,3.805,0,6.207,1.047,8.288,3.615a1.219,1.219,0,0,0,1.026.479,2.06274,2.06274,0,0,0,1.908-1.592,1.4236,1.4236,0,0,0-.206-1.114.49886.49886,0,0,0-.027-.044c-2.113-3.005-5.602-4.528-10.372-4.528-6.952,0-11.916,3.334-12.958,8.701-1.243,6.427,4.475,8.577,9.52,10.475,4.36,1.64,8.482,3.189,7.718,7.12-1.075,5.55-6.924,6.379-10.318,6.379-4.678,0-7.565-1.266-9.659-4.233l-.02-.027a1.262,1.262,0,0,0-1.024-.48,2.06467,2.06467,0,0,0-1.908,1.593,1.42338,1.42338,0,0,0,.205,1.111c1.394,2.596,5.582,5.22,11.791,5.22,7.873,0,13.264-3.575,14.423-9.563,1.238-6.385-4.433-8.477-9.435-10.32Zm-10.548-24.949h-3.682l.709-3.663a1.40961,1.40961,0,0,0-1.408-1.736,2.24923,2.24923,0,0,0-2.082,1.736l-.709,3.663h-3.682a2.24607,2.24607,0,0,0-2.08,1.735,1.40964,1.40964,0,0,0,1.408,1.736h3.682l-.709,3.663a1.41,1.41,0,0,0,1.408,1.736,2.244,2.244,0,0,0,2.08-1.736l.709-3.663h3.682a2.24974,2.24974,0,0,0,2.08-1.736,1.4064,1.4064,0,0,0-1.406-1.735Zm-292.337,35.278a18.14251,18.14251,0,0,0,8.085,2.136c2.791,0,4.293-1.497,4.293-3.345,0-1.78-1.073-2.989-4.08-4.697-3.719-2.136-6.51-5.126-6.51-9.041,0-6.906,5.94-11.817,14.597-11.817,3.793,0,6.726.712,8.299,1.638l-2.289,6.976a14.85073,14.85073,0,0,0-6.153-1.353c-2.79,0-4.58,1.282-4.58,3.274,0,1.565,1.29,2.706,3.794,4.058,3.864,2.206,7.083,5.197,7.083,9.397,0,7.83-6.368,12.244-15.24,12.173-4.08-.07-7.873-1.14-9.73-2.42Zm24.544,9.205,9.588-49.843h9.874l-3.793,19.322.142-.127c2.647-3.132,6.082-5.294,10.446-5.294,5.153,0,8.086,3.297,8.086,8.85a38.67354,38.67354,0,0,1-.716,6.607l-3.864,20.488h-9.874l3.72-19.874a23.6791,23.6791,0,0,0,.43-4.454c0-2.135-.857-3.686-3.077-3.686-3.149,0-6.513,4.184-7.8,10.662l-3.292,17.352h-9.87Zm70.052-22.302c0,12.173-7.872,22.567-19.536,22.567-8.872,0-13.594-6.123-13.594-13.74,0-11.888,7.873-22.567,19.75-22.567C280.7769,385.6823,284.92592,392.37329,284.92592,399.42029Zm-23.04,8.614c0,3.56,1.431,6.406,4.795,6.406,5.222,0,8.157-9.255,8.157-15.305,0-2.918-1.146-5.906-4.65-5.906-5.369-.003-8.302,9.18-8.302,14.805Zm20.68,27.532,6.868-35.921c.789-4.058,1.574-9.307,2.004-13.001h8.73l-.573,5.538h.143c2.646-3.692,6.512-6.171,10.445-6.171,7.226,0,10.161,5.742,10.161,12.362,0,11.961-7.583,23.74-19.175,23.74-2.433,0-4.651-.393-5.797-1.315h-.216l-2.72,14.769Zm14.098-22.408a6.14161,6.14161,0,0,0,4.08,1.424c5.51,0,9.303-9.041,9.303-15.376,0-2.633-.93-5.41-3.935-5.41-3.435,0-6.655,4.06-7.799,10.18Zm23.971,8.564,6.655-35.074h9.946l-6.726,35.074Zm12.81-38.766c-2.791,0-4.65-2.375-4.65-5.293a5.78509,5.78509,0,0,1,5.652-5.886,4.91632,4.91632,0,0,1,4.94513,4.88733q.00092.15642-.00811.31267a5.80665,5.80665,0,0,1-5.63071,5.97741q-.08213.00246-.16431.00258Zm5.65,38.766,5.224-27.69h-4.58l1.432-7.384h4.58l.286-1.765c.789-4.13,2.36-8.323,5.724-11.17a14.73618,14.73618,0,0,1,9.66-3.307,13.97759,13.97759,0,0,1,5.367.839l-1.931,7.68a9.7429,9.7429,0,0,0-3.149-.502c-3.293,0-5.297,3.115-5.868,6.462l-.358,1.763h6.869l-1.36,7.384h-6.797l-5.224,27.69Zm35.494-35.074,1.573,15.7c.431,3.489.716,6.452.858,8.298h.142c.789-1.846,1.505-4.597,2.935-8.368l6.01-15.628h10.304l-12.092,25.678c-4.293,8.826-8.443,15.26-12.952,19.46a22.49521,22.49521,0,0,1-9.66,5.315l-2.72-8.342a21.53783,21.53783,0,0,0,5.581-2.78,16.84272,16.84272,0,0,0,5.366-5.911,1.871,1.871,0,0,0,.216-1.546l-5.94-31.872Zm100,3.298a2.2471,2.2471,0,0,0-2.081,1.736l-3.335,17.23c-1.81,8.777-7.228,9.976-12.308,9.976-9.148,0-9.378-5.184-8.397-10.256l3.92-20.25a1.40919,1.40919,0,0,0-1.408-1.736,2.24723,2.24723,0,0,0-2.081,1.735l-3.92,20.25c-.79,4.082-.51,7.129.863,9.312,1.72,2.739,5.222,4.127,10.406,4.127s9.222-1.39,12.004-4.127c2.218-2.183,3.68-5.23,4.469-9.311l3.28-16.95a1.414,1.414,0,0,0-1.412-1.736Zm-31.523-18.01a2.24632,2.24632,0,0,0-2.081,1.735l-8.95,46.235a1.40872,1.40872,0,0,0,1.408,1.735,2.24724,2.24724,0,0,0,2.081-1.735l8.95-46.235a1.40873,1.40873,0,0,0-1.408-1.73495Zm-288.958-7.31-2.41.743a16.66913,16.66913,0,0,0-1.153-2.82c-1.707-3.24-4.209-4.957-7.23-4.961h-.01c-.21,0-.419.018-.628.037q-.13111-.16107-.274-.312a6.36081,6.36081,0,0,0-5.027-2.025c-3.904.112-7.791,2.916-10.942,7.896a31.16562,31.16562,0,0,0-4.383,11.316l-7.684,2.368c-2.261.706-2.332.776-2.63,2.897-.223,1.605-6.142,47.14-6.142,47.14l49.11,8.45v-70.829a2.98988,2.98988,0,0,0-.597.1Zm-11.339,3.495-8.282,2.551a19.49392,19.49392,0,0,1,4.182-8.075,8.37689,8.37689,0,0,1,2.811-2.037,18.41782,18.41782,0,0,1,1.289,7.56Zm-5.318-10.248a3.99974,3.99974,0,0,1,2.347.612,11.30857,11.30857,0,0,0-3.031,2.347,22.55754,22.55754,0,0,0-5.136,10.716c-2.364.729-4.676,1.44-6.801,2.096,1.34-6.237,6.596-15.598,12.621-15.771Zm-7.594,35.535c.263,4.156,11.255,5.063,11.872,14.8.486,7.658-4.083,12.896-10.667,13.31a16.02487,16.02487,0,0,1-12.251-4.141l1.674-7.087s4.378,3.287,7.882,3.066a3.08618,3.08618,0,0,0,3.03248-3.139q-.00145-.08409-.00748-.168c-.343-5.422-9.292-5.103-9.86-14.01-.474-7.497,4.473-15.094,15.394-15.78a13.523,13.523,0,0,1,6.362.803l-2.498,9.292a14.27141,14.27141,0,0,0-6.088-1.055c-4.843.308-4.895,3.347-4.845,4.109Zm15.506-26.089a21.15785,21.15785,0,0,0-1.186-7.065c2.962.557,4.42,3.892,5.036,5.88-1.14.353-2.44.753-3.85,1.185Zm10.965,67.842,20.372-5.039s-8.772-58.998-8.826-59.404a.7819.7819,0,0,0-.705-.653c-.293-.025-6.03-.11-6.03-.11s-3.498-3.379-4.811-4.658Z" transform="translate(-105.59485 -355.27787)"/></svg>